<svg width="54" height="57" viewBox="0 0 54 57" fill="none" xmlns="http://www.w3.org/2000/svg">
<g id="LUPA">
<path id="Ellipse 1" d="M44.3516 23.4078C44.3516 36.3355 34.4231 46.8156 22.1758 46.8156C9.92844 46.8156 0 36.3355 0 23.4078C0 10.48 9.92844 0 22.1758 0C34.4231 0 44.3516 10.48 44.3516 23.4078ZM4.43516 23.4078C4.43516 33.75 12.3779 42.134 22.1758 42.134C31.9737 42.134 39.9164 33.75 39.9164 23.4078C39.9164 13.0656 31.9737 4.68155 22.1758 4.68155C12.3779 4.68155 4.43516 13.0656 4.43516 23.4078Z" fill="black"/>
<rect id="Rectangle 1" width="7.59633" height="23.7617" transform="matrix(0.694268 -0.719716 0.681171 0.732124 32.3396 39.6034)" fill="black"/>
</g>
</svg>
